Coordinates
version=1
nRows=13
nColumns=36
inDegrees=yes

Units are S.I. units (second, meters, Newtons, ...)
If the header above contains a line with 'inDegrees', this indicates whether rotational values are in degrees (yes) or radians (no).

endheader
time	pelvis_tilt	pelvis_list	pelvis_rotation	pelvis_tx	pelvis_ty	pelvis_tz	hip_flexion_r	hip_adduction_r	hip_rotation_r	knee_angle_r	knee_angle_r_beta	ankle_angle_r	subtalar_angle_r	mtp_angle_r	hip_flexion_l	hip_adduction_l	hip_rotation_l	knee_angle_l	knee_angle_l_beta	ankle_angle_l	subtalar_angle_l	mtp_angle_l	lumbar_extension	lumbar_bending	lumbar_rotation	arm_flex_r	arm_add_r	arm_rot_r	elbow_flex_r	pro_sup_r	arm_flex_l	arm_add_l	arm_rot_l	elbow_flex_l	pro_sup_l
      0.00000000	     -1.19400843	      1.63173644	     -5.42163630	      0.80267820	      0.95656384	     -0.32861336	      4.57043967	      4.32292681	      3.90822911	      9.00972797	      0.15724942	      6.90010446	     -5.43751029	     -6.42852699	     35.45612949	     -3.64078720	      3.90333829	     34.04844797	      0.59425752	      1.73216407	    -13.73080761	     -6.42852699	    -10.81592352	      1.87958889	     -2.83005174	     48.46202031	    -17.06027055	     63.86597055	    124.41459360	     76.97735556	     47.98267337	     -4.26398355	     54.82063748	    116.01476592	     91.91417157
      0.01666670	     -1.50349929	      0.35529069	     -8.12636094	      0.80199708	      0.95462362	     -0.32606194	      5.75585319	      6.34122455	      7.03928033	     10.73161732	      0.18730206	      4.43342064	     -7.59981633	     -6.73152638	     35.60501622	     -6.99444494	      2.03071959	     32.30471555	      0.56382365	      2.03533052	     -9.27098699	     -6.73152638	    -11.89861104	      3.69599308	      2.17276858	     52.91267453	    -18.79574812	     72.92519698	    128.86637724	     95.72084251	     49.92040367	     -3.64629698	     54.98308600	    120.33261920	    104.67430050
      0.03333330	     -1.03354950	      1.32764595	     -9.58319404	      0.80598608	      0.95459466	     -0.31889979	      6.09375182	      5.66451968	      7.68203880	     12.25051049	      0.21381174	      5.37683053	     -7.60961277	     -6.78904729	     33.72812399	     -7.47800116	      0.45008160	     31.08625126	      0.54255744	      0.57977930	     -8.64725892	     -6.78904729	    -11.83885517	      2.07402732	      3.51646461	     52.89898790	    -17.30477895	     71.20462517	    129.21421833	     94.81685098	     50.42514747	     -4.02013534	     55.52246319	    121.59990986	    103.61035238
      0.05000000	     -1.09507929	      3.02331084	    -10.18640869	      0.81360408	      0.95428389	     -0.32024476	      6.46572087	      3.87296248	      6.99003146	     12.30302575	      0.21472831	      6.74798680	     -5.75888334	     -6.91945627	     32.97178823	     -6.66682980	     -1.37352162	     31.10248128	      0.54284070	      1.63453517	     -6.87269258	     -6.91945627	    -10.42400278	      0.11208940	      4.23065617	     51.08594878	    -16.53414889	     69.28142859	    128.37825679	    100.24029395	     50.01000923	     -3.82632429	     55.59624611	    121.69530630	    108.86316200
      0.06666670	     -1.73162944	      4.41277491	    -10.25973643	      0.81416533	      0.95286448	     -0.31946935	      7.58625425	      2.61178810	      6.50753294	     12.73472141	      0.22226282	      7.11165553	     -4.92541101	     -6.93899098	     33.19024647	     -5.79609984	     -2.27800881	     32.47501801	      0.56679599	      2.56545890	     -5.97115906	     -6.93899098	     -8.97449297	     -1.17909619	      4.22876948	     50.17208441	    -15.75934479	     69.33605093	    128.33351480	    100.05908672	     49.44876912	     -3.98314309	     55.18374110	    122.15204192	    108.07033066
      0.08333330	     -2.21073451	      5.55943965	    -10.11401221	      0.82149171	      0.95284470	     -0.32227632	      8.20543247	      1.45655546	      6.06671528	     12.88925536	      0.22495994	      6.92459527	     -4.19210014	     -6.95122520	     33.54098597	     -4.92784490	     -3.06476407	     34.43469170	      0.60099875	      2.75885217	     -5.38767518	     -6.95122520	     -7.68863284	     -2.02830142	      4.08291594	     49.09307052	    -15.31172060	     69.64188310	    128.27934490	    100.19586159	     48.50649865	     -3.95739184	     54.54352950	    122.64073261	    107.80398528
      0.10000000	     -2.72404869	      6.25691901	     -9.80137435	      0.82165541	      0.95139946	     -0.32238602	      8.81891734	      0.83190043	      5.78282007	     13.16150716	      0.22971163	      6.85791474	     -3.83970112	     -6.96596362	     33.87705705	     -4.25391525	     -3.29246308	     36.44975814	      0.63616829	      3.39143672	     -4.81582742	     -6.96596362	     -6.57349118	     -2.33498439	      3.72825662	     47.97946013	    -15.01100808	     70.05363476	    127.97718533	    100.48913414	     47.63012380	     -3.96999877	     54.30724157	    123.28905028	    107.59386829
      0.11666670	     -2.77743301	      6.73605030	     -9.48059895	      0.82844182	      0.95242833	     -0.32574905	      8.55540888	      0.25921821	      5.67398475	     13.01633811	      0.22717796	      7.09418361	     -3.93530984	     -6.97278149	     33.00774221	     -3.50556627	     -3.57196341	     37.71384037	      0.65823069	      3.51440388	     -4.67375318	     -6.97278149	     -5.97982540	     -2.53774237	      3.36606518	     47.05250789	    -14.98177712	     70.62163650	    128.21122549	    100.42071900	     46.83987968	     -3.94736172	     54.21621342	    123.26233152	    107.26598576
      0.13333330	     -2.92815684	      6.97566221	     -9.11197812	      0.83485215	      0.95181403	     -0.32954244	      7.94462816	     -0.14251139	      5.58484999	     12.26779779	      0.21411346	      7.25471422	     -3.82276247	     -6.97944868	     31.93727426	     -2.87268345	     -3.62904669	     38.18524812	      0.66645831	      3.43572704	     -4.42996795	     -6.97944868	     -5.05557737	     -2.34426020	      2.90747852	     45.97638521	    -15.20879218	     71.49572161	    129.68608157	    100.53526717	     45.38799823	     -3.81384255	     53.70416192	    123.24076867	    107.08827897
      0.15000000	     -3.01880512	      6.87294228	     -8.76396021	      0.83484788	      0.95267634	     -0.32963480	      7.50425504	     -0.13026762	      5.66656550	     11.75762319	      0.20520924	      7.32989289	     -3.75065554	     -6.98211717	     31.00376354	     -2.81244948	     -3.67417899	     38.36765068	      0.66964183	      3.15866356	     -4.31527131	     -6.98211717	     -4.46945935	     -1.92432820	      2.44253876	     44.78255197	    -15.03784050	     72.40320970	    130.61229292	    100.60508992	     44.54427272	     -3.76387861	     53.70745560	    123.06177810	    107.01598923
      0.16666670	     -3.13211205	      6.73371432	     -8.26029023	      0.84145909	      0.95258922	     -0.33391200	      6.87531389	     -0.19845012	      5.39969103	     10.91455675	      0.19049495	      7.02783437	     -3.60918599	     -6.99208745	     30.01671417	     -2.57280525	     -3.39971358	     38.12277847	      0.66536800	      3.29372581	     -4.47773225	     -6.99208745	     -3.88038160	     -1.43216338	      2.07860720	     44.17223687	    -15.36446267	     74.15013532	    132.72641410	    100.82780360	     43.34700707	     -3.12349951	     53.26734457	    122.90844231	    106.72772590
      0.18333330	     -3.24309813	      6.56766824	     -8.01960935	      0.84168282	      0.95348392	     -0.33405924	      6.40574614	     -0.13959694	      5.34735659	     10.10674189	      0.17639592	      6.80239290	     -3.56940668	     -6.99773819	     29.14974906	     -2.59369692	     -3.06943022	     37.81850885	      0.66005750	      3.48871878	     -4.44797163	     -6.99773819	     -3.48075506	     -1.00572677	      2.09203167	     43.47601558	    -15.45913889	     75.18056692	    133.52480622	    100.96708577	     42.48581782	     -3.10246552	     53.21246358	    122.78592885	    106.57489865
      0.20000000	     -3.32451764	      6.19130635	     -7.84481357	      0.84163641	      0.95023015	     -0.33505956	      6.36531696	      0.17594286	      5.20020579	     10.13682791	      0.17692102	      6.70890441	     -3.73229671	     -7.00497566	     28.43992076	     -2.85212871	     -2.41512681	     37.87772506	      0.66109102	      4.11688523	     -4.43460393	     -7.00497566	     -3.29730201	     -0.40493043	      2.12949903	     43.35871873	    -15.52250256	     75.83930305	    134.44288839	    101.00645216	     42.08778709	     -2.90475831	     52.95876646	    122.78897204	    106.29118234
